<svg width="200" height="200" viewBox="0 0 200 200" fill="none" xmlns="http://www.w3.org/2000/svg">
<path d="M142.841 199.845C142.648 199.845 142.198 199.02 141.491 197.37C140.849 195.72 140.238 193.967 139.66 192.111C139.081 190.049 138.792 188.605 138.792 187.78V79.1954L135.033 74.555V58.4684C135.033 58.4684 135.579 58.1591 136.672 57.5404C137.828 56.7154 139.178 55.9936 140.72 55.3749C142.262 54.5499 143.676 53.8281 144.961 53.2094C146.311 52.3844 147.114 51.9719 147.371 51.9719C147.564 51.9719 147.949 52.9 148.528 54.7561C149.106 56.4061 149.62 58.2622 150.07 60.3246C150.584 62.1807 150.841 63.4182 150.841 64.0369V73.0083C151.548 71.1521 152.351 69.0897 153.251 66.8211C154.15 64.3462 155.018 61.9745 155.853 59.7059C156.753 57.4372 157.492 55.5811 158.07 54.1374C158.649 52.6938 159.034 51.9719 159.227 51.9719C162.376 51.9719 165.107 53.6218 167.42 56.9216C169.733 60.0152 171.436 65.3774 172.529 73.0083C173.236 71.1521 173.975 69.0897 174.746 66.8211C175.581 64.3462 176.384 61.9745 177.156 59.7059C177.991 57.4372 178.698 55.5811 179.276 54.1374C179.854 52.6938 180.208 51.9719 180.336 51.9719C183.742 51.9719 186.634 53.5187 189.012 56.6123C191.389 59.4996 193.188 64.5525 194.409 71.7708C195.63 78.7829 196.241 88.4762 196.241 100.85V172.931L200 177.571V193.658C200 193.658 199.422 193.967 198.265 194.586C197.173 195.205 195.855 195.927 194.313 196.751C192.835 197.576 191.453 198.298 190.168 198.917C188.947 199.536 188.208 199.845 187.951 199.845C187.694 199.845 187.212 199.02 186.505 197.37C185.863 195.72 185.22 193.967 184.578 192.111C183.999 190.049 183.71 188.605 183.71 187.78V101.16C183.71 96.4164 183.549 92.7041 183.228 90.023C182.907 87.3419 182.489 85.3826 181.975 84.1452C181.461 82.9077 180.947 82.1859 180.433 81.9796C179.983 81.7734 179.597 81.6703 179.276 81.6703C179.148 81.6703 178.826 82.0828 178.312 82.9077C177.862 83.5264 177.316 84.4545 176.674 85.6919C176.095 86.7231 175.517 87.7543 174.939 88.7855C174.424 89.6105 174.039 90.2292 173.782 90.6417V172.931L177.252 177.571V193.658C177.252 193.658 176.706 193.967 175.613 194.586C174.521 195.205 173.236 195.927 171.758 196.751C170.28 197.576 168.93 198.298 167.709 198.917C166.488 199.536 165.749 199.845 165.492 199.845C165.235 199.845 164.753 199.02 164.046 197.37C163.404 195.72 162.761 193.967 162.119 192.111C161.54 190.049 161.251 188.605 161.251 187.78V101.16C161.251 94.7665 160.962 90.2292 160.384 87.5481C159.87 84.867 159.259 83.2171 158.552 82.5984C157.91 81.9797 157.396 81.6703 157.01 81.6703C156.881 81.6703 156.56 82.0828 156.046 82.9077C155.532 83.5264 154.954 84.4545 154.311 85.6919C153.668 86.7231 153.058 87.7543 152.48 88.7855C151.901 89.6105 151.516 90.2292 151.323 90.6417V172.931L154.793 177.571V193.658C154.793 193.658 154.247 193.967 153.154 194.586C152.062 195.205 150.777 195.927 149.299 196.751C147.821 197.576 146.439 198.298 145.154 198.917C143.933 199.536 143.162 199.845 142.841 199.845Z" fill="#E63946"/>
<path d="M111.182 199.845C104.113 199.845 98.6829 194.483 94.8916 183.758C91.1645 172.828 89.301 155.71 89.301 132.405C89.301 123.331 89.5259 114.359 89.9757 105.491C90.4898 96.6226 91.0681 90.023 91.7107 85.6919C92.2891 83.2171 93.3494 80.1235 94.8916 76.4112C96.4338 72.6989 98.1046 68.9866 99.9039 65.2743C101.703 61.562 103.374 58.4684 104.916 55.9936C106.523 53.3125 107.679 51.9719 108.386 51.9719C115.455 51.9719 120.788 57.7466 124.387 69.296C128.05 80.8453 129.881 97.3444 129.881 118.793C129.881 128.899 129.624 138.283 129.11 146.945C128.66 155.607 128.146 162.413 127.568 167.362C126.925 169.631 125.865 172.622 124.387 176.334C122.909 179.84 121.27 183.449 119.471 187.161C117.672 190.667 116.001 193.658 114.459 196.133C112.981 198.608 111.888 199.845 111.182 199.845ZM111.374 178.499C111.631 178.293 112.049 177.778 112.627 176.953C113.27 175.921 113.88 174.993 114.459 174.168C115.037 173.137 115.326 172.622 115.326 172.622C115.583 167.878 115.84 161.588 116.097 153.751C116.419 145.914 116.579 135.705 116.579 123.124C116.579 114.05 116.29 105.8 115.712 98.3756C115.134 90.951 114.202 84.9701 112.917 80.4329C111.696 75.8956 110.025 73.627 107.904 73.627C107.454 73.627 107.005 73.7301 106.555 73.9363C106.105 73.9363 105.655 74.3488 105.205 75.1738C104.498 76.205 103.888 81.4641 103.374 90.951C102.86 100.232 102.603 112.503 102.603 127.765C102.603 141.583 103.053 152.101 103.952 159.319C104.852 166.538 105.976 171.59 107.326 174.478C108.675 177.159 110.025 178.499 111.374 178.499Z" fill="#FFD23F"/>
<path d="M69.8965 199.845C69.3824 199.845 68.6755 198.814 67.7759 196.752C66.9405 194.689 66.1051 192.214 65.2698 189.327C64.4344 186.233 63.7275 183.243 63.1492 180.356C62.5708 177.262 62.2817 174.581 62.2817 172.312V77.0301H55.6307V62.4903L62.2817 53.5189L70.0893 23.8205C70.6676 23.6143 71.3745 24.0267 72.2099 25.0579C73.0452 26.0891 73.9127 27.2234 74.8124 28.4608V55.6844H84.4514V77.9581H74.8124V159.01C74.8124 164.372 74.973 167.981 75.2943 169.838C75.6799 171.694 76.2582 172.622 77.0294 172.622L85.4153 173.859V193.658C84.1301 194.277 82.6843 194.999 81.0778 195.824C79.4713 196.442 77.8647 197.061 76.2582 197.68C74.716 198.298 73.3665 198.814 72.2099 199.227C71.0532 199.639 70.2821 199.845 69.8965 199.845Z" fill="#7B2CBF"/>
<path d="M2.89171 74.8647C3.53431 71.1524 4.40182 67.1307 5.49424 62.7997C6.65093 58.4687 7.93613 54.1377 9.34985 49.8066C10.7636 45.4756 12.2737 41.454 13.8802 37.7417H17.543C17.0932 41.454 16.7398 46.0944 16.4827 51.6628C16.2257 57.025 16.0329 64.4496 15.9044 73.9366C15.8401 83.4236 15.808 96.1072 15.808 111.988C15.808 127.868 15.808 148.183 15.808 172.931L22.9409 178.809L20.2419 195.514C19.2138 195.927 17.9607 196.339 16.4827 196.752C15.069 197.37 13.6553 197.886 12.2416 198.299C10.8921 198.917 9.70328 199.33 8.67512 199.536C7.71122 199.742 7.06862 199.845 6.74732 199.845C6.16897 199.227 5.59063 198.092 5.01229 196.442C4.43395 194.586 3.91987 192.73 3.47005 190.874C3.08449 188.812 2.82745 187.265 2.69893 186.234C2.82745 178.396 3.05236 170.766 3.37366 163.341C3.75922 155.71 3.952 147.048 3.952 137.355C3.952 129.724 3.82348 122.403 3.56644 115.391C3.3094 108.378 3.08449 101.573 2.89171 94.9729C2.76319 88.1671 2.76319 81.4643 2.89171 74.8647ZM21.0131 103.635L36.8211 101.469V123.125L21.0131 120.959V103.635ZM25.2542 37.123V161.176C25.2542 162.413 25.0293 164.682 24.5795 167.981C24.194 171.075 23.6477 174.684 22.9409 178.809H20.0492V37.123H25.2542ZM0 30.0077L0.674732 0C4.5946 1.03119 8.70725 2.26863 13.0127 3.71231C17.3181 4.94974 21.4629 6.3934 25.447 8.04332C29.4312 9.48698 32.9655 10.8275 36.0499 12.065C39.1344 13.3024 41.3835 14.5398 42.7973 15.7773C42.99 15.7773 43.3435 16.6022 43.8576 18.2521C44.3716 19.902 44.9179 21.7582 45.4962 23.8206C46.0745 25.883 46.5565 27.9454 46.942 30.0077C47.3919 31.8639 47.6168 33.1013 47.6168 33.72V172.622L52.9182 178.5V195.514C51.8258 195.927 50.5406 196.442 49.0626 197.061C47.6489 197.68 46.2031 198.195 44.7251 198.608C43.2471 199.227 41.9298 199.639 40.7731 199.845C39.6806 200.052 39.0059 200.052 38.7489 199.845C38.1705 199.227 37.5922 197.989 37.0138 196.133C36.4355 194.277 35.9214 192.421 35.4716 190.565C35.086 188.502 34.829 187.059 34.7005 186.234V48.2599L16.1936 40.2166L12.8199 40.8353L12.6271 38.9791L0 30.0077Z" fill="#0A2463"/>
</svg>
